<?xml version="1.0" encoding="UTF-8"?>
<!DOCTYPE svg PUBLIC "-//W3C//DTD SVG 1.1//EN" "http://www.w3.org/Graphics/SVG/1.1/DTD/svg11.dtd">
<!-- Creator: CorelDRAW -->
<svg xmlns="http://www.w3.org/2000/svg" xml:space="preserve" width="2048px" height="2048px" style="shape-rendering:geometricPrecision; text-rendering:geometricPrecision; image-rendering:optimizeQuality; fill-rule:evenodd; clip-rule:evenodd"
viewBox="0 0 2048 2048"
 xmlns:xlink="http://www.w3.org/1999/xlink">
 <defs>
  <style type="text/css">
   <![CDATA[
    .fil3 {fill:none}
    .fil1 {fill:none;fill-rule:nonzero}
    .fil0 {fill:#424242}
    .fil2 {fill:#424242;fill-rule:nonzero}
   ]]>
  </style>
 </defs>
 <g id="Layer_x0020_1">
  <metadata id="CorelCorpID_0Corel-Layer"/>
  <path class="fil0" d="M611.627 904.64c0.00236221,0.00826772 0.00472441,0.0165354 0.00826772,0.0248032 0.108662,0.367323 0.217323,0.735827 0.327166,1.10433 0.311811,1.05827 0.623623,2.1189 0.934253,3.17835 0.387402,1.31221 0.764174,2.64213 1.17284,3.94843 9.5752,28.3642 31.0028,46.4741 60.4512,50.8819 10.9618,1.63937 22.3004,0.947245 33.0579,-1.65945 10.8354,-2.62559 21.2315,-7.31575 30.2929,-13.8236 26.7567,-19.2154 35.4118,-48.5256 29.6835,-80.2631 -0.102756,-0.575197 -0.219685,-1.19646 -0.366142,-1.80354l-0.522048 -1.34764c-6.35434,-16.4256 -13.3854,-32.6091 -19.7244,-49.0819 -4.62874,-12.0307 -9.19961,-24.3732 -12.7406,-36.7689 -3.1689,-11.0953 -6.74292,-25.2732 -1.02874,-36.0709 5.44725,-10.2933 20.8441,-13.741 31.1079,-17.0339 6.70276,-2.15079 13.9725,-4.60748 20.7969,-6.2693l19.774 -4.81536 4.73741 19.7929c12.6354,52.7823 18.5835,106.528 15.2728,160.779 -1.58977,26.0481 -5.27717,51.3449 -10.6937,76.2981l209.352 -61.8745 19.8874 -198.868 12.2976 -4.22008c16.6039,-5.69646 45.0225,-3.41221 62.4733,-1.94646 29.3221,2.46142 58.7079,6.42875 87.893,10.1976 59.0469,7.62638 166.769,13.1398 216.049,-22.0547 20.0445,-14.315 37.226,-33.8882 45.4996,-57.3615 6.14292,-17.4307 7.1256,-36.9922 -0.643701,-54.0933 -19.9099,-43.8237 -79.0253,-42.554 -118.466,-33.6815 -22.9961,5.17205 -55.1469,3.45473 -78.6993,2.09055 -35.3658,-2.04803 -70.7859,-5.68111 -106.031,-9.26221 -27.8433,-2.82874 -55.6914,-5.7567 -83.576,-8.15906 -21.978,-1.89095 -44.5914,-3.70866 -66.6532,-3.67087 -36.3697,0.0602363 -72.7973,1.35709 -109.045,4.38307 -96.3839,8.04922 -243.543,32.7461 -302.527,119.162 -35.4071,51.8752 -30.6638,114.214 -12.8091,171.63 8.29843,26.6847 15.6673,53.5559 22.4575,80.6599zm172.223 168.764l-201.693 598.015c-0.217323,0.641339 -0.485433,1.32165 -0.734646,1.99725l-0.379134 1.58032c-5.75434,24.0047 -1.88858,49.0524 10.7386,70.2473 12.626,21.1914 32.7933,36.5327 56.6398,42.9048 26.2394,7.00985 51.6378,4.98898 74.3103,-10.5425 21.254,-14.5595 34.8343,-38.0918 42.6366,-62.1792 52.5827,-162.334 107.173,-348.392 156.651,-511.683l5.98111 -19.7445 240.144 101.8 -94.8887 189.78c-23.2382,46.4764 -4.39134,103.002 42.0792,126.237 46.4764,23.237 103.002,4.39134 126.24,-42.0792 22.2756,-44.5512 45.4737,-88.5509 68.9552,-132.473 17.2063,-32.1851 34.8012,-64.4351 50.7733,-97.245 14.8878,-30.5799 38.5087,-79.7245 29.6776,-114.699 -8.00079,-31.6937 -43.1929,-57.0969 -68.8737,-74.041 -26.537,-17.5099 -54.8811,-33.1288 -82.9111,-48.1028 -39.3355,-21.013 -79.2367,-41.0953 -119.05,-61.1835 -25.8225,-13.0288 -51.6508,-26.0528 -77.3481,-39.3307l-258.947 80.7414z"/>
  <polyline class="fil1" points="731.012,1676.91 731.04,1676.92 731.362,1675.67 731.392,1675.68 "/>
  <line class="fil1" x1="731.392" y1="1675.68" x2="876.66" y2= "1032.32" />
  <path class="fil2" d="M995.696 256.001c32.7331,0 62.3752,13.2721 83.83,34.7268 21.4547,21.4547 34.728,51.0957 34.728,83.8288 0,32.7355 -13.2732,62.3752 -34.728,83.8312 -21.4547,21.4547 -51.0969,34.7268 -83.83,34.7268 -32.7343,0 -62.3741,-13.2721 -83.8288,-34.7268 -21.4547,-21.4559 -34.728,-51.0957 -34.728,-83.8312 0,-32.7331 13.2732,-62.3741 34.728,-83.8288 21.4547,-21.4547 51.0945,-34.7268 83.8288,-34.7268z"/>
  <path class="fil2" d="M1013.96 984.013c11.8654,-2.82047 19.1953,-14.7295 16.3748,-26.5949 -2.82402,-11.863 -14.7319,-19.1953 -26.5949,-16.3713l-222.17 61.7386c-13.0866,3.11221 -21.1725,16.2449 -18.0603,29.3315 3.11339,13.0866 16.2461,21.1736 29.3327,18.0591l221.118 -66.163z"/>
  <path class="fil2" d="M679.384 1133.59c-5.82874,8.80512 -3.41575,20.6705 5.38937,26.4992 8.80512,5.82756 20.6705,3.41457 26.4992,-5.38937l75.8564 -114.524 0.0354331 0.0236221c5.8441,-8.82284 3.42874,-20.7154 -5.3941,-26.5595 -5.58071,-3.69685 -12.3874,-4.0878 -18.1169,-1.64528l-115.382 38.7733c-10.0039,3.34843 -15.4004,14.1756 -12.052,24.1795 3.34843,10.0039 14.1744,15.4004 24.1784,12.052l64.1174 -21.5457 -45.1311 68.1367z"/>
 </g>
 <rect class="fil3" width="2048" height="2048"/>
</svg>
